<svg xmlns="http://www.w3.org/2000/svg" viewBox="0 0 512 512" xml:space="preserve"><path style="fill:#e7eced" d="M256 69.385c11.803 0 21.46 9.657 21.46 21.46s-9.657 21.46-21.46 21.46-21.46-9.657-21.46-21.46 9.657-21.46 21.46-21.46"/><path style="fill:#afb6bb" d="M218.443 326.902h75.11v37.555h-75.11z"/><path style="fill:#7c8287" d="M218.443 364.457h75.11v69.745h-75.11z"/><path style="fill:#e7eced" d="M186.255 219.606v-32.19h139.49v32.19h16.096v42.92H170.16v-42.92z"/><path style="fill:#c7cac7" d="M325.745 402.017v32.19h-32.19V326.906h-75.11v107.301h-32.19v-32.19H170.16V262.526h171.681v139.491z"/><path style="fill:#8a9095" d="M443.776 434.207v32.19H68.224v-32.19h364.822z"/><path style="fill:#afb6bb" d="M470.601 477.127v26.825H41.399v-26.825c0-5.902 4.829-10.73 10.73-10.73h407.742c5.902 0 10.73 4.829 10.73 10.73"/><path style="fill:#e7eced" d="M325.743 402.013h107.301v32.19H325.743zm-139.488.004v32.19H78.954v-32.19h91.206zm155.586-182.411h-16.096v-32.19h107.301v32.19h-16.095zm-262.887-32.19h107.301v32.19H78.954z"/><path style="fill:#a4a9ab" d="M416.951 219.606v182.411h-75.11V219.606zm-246.791 0v182.411H95.049V219.606zm300.441-59.016v26.825H41.399V160.59c0-5.902 4.829-10.73 10.73-10.73h407.742c5.902 0 10.73 4.829 10.73 10.73"/><path style="fill:#e7eced" d="M427.681 149.86H84.319L256 10.37zM277.46 90.845c0-11.803-9.657-21.46-21.46-21.46s-21.46 9.657-21.46 21.46 9.657 21.46 21.46 21.46 21.46-9.657 21.46-21.46"/><path d="M256 61.337c-16.271 0-29.508 13.237-29.508 29.508s13.237 29.508 29.508 29.508 29.508-13.237 29.508-29.508S272.27 61.337 256 61.337m0 42.921c-7.396 0-13.413-6.016-13.413-13.413S248.604 77.432 256 77.432s13.413 6.016 13.413 13.413-6.018 13.413-13.413 13.413"/><path d="M441.094 227.653v-32.19h37.555V160.59c0-10.353-8.424-18.778-18.778-18.778h-29.333L256 0 81.462 141.813H52.129c-10.353 0-18.778 8.424-18.778 18.778v34.873h37.555v32.19h16.095V393.97H70.906v32.19h-10.73v32.19h-8.048c-10.353 0-18.778 8.424-18.778 18.778V512h445.298v-34.873c0-10.353-8.424-18.778-18.778-18.778h-8.048v-32.19h-10.73v-32.19h-16.095V227.653zm-16.095-16.095h-91.206v-16.095h91.206zm-37.556 158.269V227.653h21.46v166.316h-59.015V227.653h21.46v142.173zm-53.65 24.142h-16.095v32.19h-16.095v-107.3h-91.206V426.16h-16.095v-32.19h-16.095V270.574h155.586zm-48.285-37.555h-59.015v-21.46h59.015zm-59.016 16.095h59.015v53.65h-59.015zm107.301-118.031H178.207v-26.825h16.095v-32.19h123.396v32.19h16.095zM256 20.738l149.015 121.074h-298.03zM49.446 179.368V160.59c0-1.454 1.229-2.683 2.683-2.683h407.742c1.454 0 2.683 1.229 2.683 2.683v18.778zm37.556 16.095h91.206v16.095H87.002zm53.65 174.364V227.653h21.46v166.316h-59.015V227.653h21.46v142.173zm-53.65 40.237h91.206v16.095H87.002zm372.869 64.381c1.454 0 2.683 1.229 2.683 2.683v18.778H49.446v-18.778c0-1.454 1.229-2.683 2.683-2.683zm-24.142-32.19v16.095H76.271v-16.095zm-10.73-16.095h-91.206v-16.095h91.206z"/><path d="M239.903 216.919h32.19v16.095h-32.19z"/></svg>